<svg role="img" viewBox="0 0 24 24" xmlns="http://www.w3.org/2000/svg"><title>Gmail</title><defs><clipPath id="mark"><path d="M24 5.457v13.909c0 .904-.732 1.636-1.636 1.636h-3.819V11.73L12 16.64l-6.545-4.91v9.273H1.636A1.636 1.636 0 0 1 0 19.366V5.457c0-2.023 2.309-3.178 3.927-1.964L5.455 4.64 12 9.548l6.545-4.91 1.528-1.145C21.69 2.28 24 3.434 24 5.457z"/></clipPath></defs><g clip-path="url(#mark)"><path fill="#4285f4" d="M0 0h5.455v24H0z"/><path fill="#34a853" d="M18.545 0H24v24h-5.455z"/><path fill="#ea4335" d="M5.455 0h13.09v24H5.455z"/><path fill="#c5221f" d="M0 0h5.455v11.73L0 7.64z"/><path fill="#fbbc04" d="M18.545 0H24v7.64l-5.455 4.09z"/></g></svg>
